<svg id="svg" version="1.1" xmlns="http://www.w3.org/2000/svg" xmlns:xlink="http://www.w3.org/1999/xlink" width="400" height="97.71929824561403" viewBox="0, 0, 400,97.71929824561403"><g id="svgg"><path id="path0" d="M12.667 0.108 C 11.482 0.221,9.342 0.712,9.428 0.852 C 9.477 0.931,9.409 0.954,9.276 0.903 C 8.844 0.738,6.333 2.066,6.333 2.461 C 6.333 2.557,6.202 2.602,6.042 2.561 C 5.732 2.481,3.126 4.896,2.330 6.001 C 1.475 7.187,0.638 9.233,0.261 11.053 C -0.062 12.617,-0.141 84.363,0.178 86.333 C 0.472 88.150,1.436 90.667,1.837 90.667 C 1.927 90.667,1.991 90.723,1.980 90.792 C 1.916 91.200,2.039 91.490,2.314 91.577 C 2.487 91.632,2.618 91.805,2.606 91.962 C 2.593 92.118,2.753 92.322,2.961 92.414 C 3.168 92.506,3.309 92.658,3.273 92.751 C 3.237 92.845,3.456 93.108,3.761 93.336 C 4.065 93.564,4.406 93.919,4.519 94.125 C 4.631 94.331,4.873 94.500,5.056 94.500 C 5.239 94.500,5.340 94.549,5.281 94.608 C 5.144 94.745,5.832 95.354,6.004 95.247 C 6.074 95.204,6.175 95.281,6.227 95.418 C 6.280 95.555,6.475 95.667,6.661 95.667 C 6.848 95.667,7.000 95.730,7.000 95.807 C 7.000 96.062,8.611 96.829,9.941 97.207 L 11.250 97.580 199.553 97.624 C 386.639 97.667,387.866 97.666,389.435 97.338 C 390.851 97.042,393.439 95.935,394.302 95.256 C 394.772 94.887,397.342 92.333,397.244 92.333 C 397.188 92.333,397.372 92.103,397.654 91.821 C 397.936 91.538,398.167 91.163,398.167 90.987 C 398.167 90.811,398.230 90.667,398.308 90.667 C 398.483 90.667,399.223 88.929,399.621 87.583 C 399.900 86.641,399.919 84.441,399.965 49.417 L 400.012 12.250 399.657 10.667 C 399.460 9.789,398.998 8.453,398.621 7.669 C 397.898 6.168,397.835 6.068,397.138 5.315 C 396.893 5.050,396.722 4.833,396.759 4.833 C 396.796 4.833,396.471 4.515,396.038 4.125 C 395.605 3.735,395.152 3.285,395.032 3.125 C 394.912 2.965,394.714 2.833,394.592 2.833 C 394.469 2.833,394.332 2.736,394.286 2.616 C 394.142 2.242,391.250 0.850,389.803 0.459 L 388.417 0.085 200.833 0.069 C 97.662 0.060,12.987 0.078,12.667 0.108 M144.708 1.125 C 143.127 1.152,140.540 1.152,138.958 1.125 C 137.377 1.097,138.671 1.075,141.833 1.075 C 144.996 1.075,146.290 1.097,144.708 1.125 M210.333 4.130 C 210.333 4.202,210.146 4.276,209.917 4.295 C 209.688 4.314,209.500 4.255,209.500 4.165 C 209.500 4.074,209.688 4.000,209.917 4.000 C 210.146 4.000,210.333 4.059,210.333 4.130 M212.000 4.167 C 212.000 4.258,211.662 4.333,211.250 4.333 C 210.838 4.333,210.500 4.258,210.500 4.167 C 210.500 4.075,210.838 4.000,211.250 4.000 C 211.662 4.000,212.000 4.075,212.000 4.167 M386.250 4.651 C 386.433 4.737,387.033 4.849,387.583 4.899 C 388.743 5.007,389.954 5.421,390.955 6.054 C 391.343 6.299,391.741 6.500,391.840 6.500 C 391.939 6.500,391.980 6.564,391.931 6.643 C 391.835 6.799,392.731 7.667,392.989 7.667 C 393.077 7.667,393.246 7.844,393.366 8.061 C 393.485 8.278,393.828 8.859,394.127 9.353 C 395.353 11.379,395.245 7.709,395.290 48.880 C 395.316 72.198,395.271 85.949,395.171 86.130 C 395.083 86.288,394.811 86.935,394.566 87.569 C 394.318 88.214,393.893 88.942,393.603 89.222 C 393.317 89.498,392.971 89.952,392.833 90.232 C 392.696 90.512,392.404 90.830,392.186 90.939 C 391.967 91.047,391.742 91.200,391.686 91.277 C 391.629 91.354,391.152 91.642,390.626 91.917 C 390.099 92.192,389.668 92.477,389.667 92.552 C 389.667 92.626,389.594 92.642,389.506 92.587 C 389.418 92.532,388.901 92.603,388.358 92.744 C 387.155 93.055,11.632 93.145,11.528 92.834 C 11.497 92.742,11.355 92.667,11.211 92.667 C 10.908 92.667,8.777 91.643,8.694 91.458 C 8.664 91.390,8.538 91.333,8.414 91.333 C 8.290 91.333,8.142 91.183,8.083 91.000 C 7.995 90.722,7.921 90.697,7.635 90.850 C 7.418 90.966,7.332 90.970,7.399 90.861 C 7.458 90.767,7.428 90.642,7.333 90.583 C 7.239 90.525,7.202 90.410,7.253 90.329 C 7.303 90.248,7.154 90.057,6.922 89.905 C 6.690 89.753,6.500 89.530,6.500 89.410 C 6.500 89.289,6.312 89.043,6.083 88.863 C 5.854 88.683,5.667 88.415,5.667 88.268 C 5.667 88.120,5.587 88.000,5.490 88.000 C 5.393 88.000,5.356 87.931,5.408 87.848 C 5.460 87.764,5.420 87.668,5.319 87.634 C 5.218 87.601,5.124 87.369,5.110 87.120 C 5.095 86.871,5.022 86.667,4.947 86.667 C 4.872 86.667,4.858 86.517,4.917 86.333 C 4.978 86.140,4.947 86.000,4.841 86.000 C 4.731 86.000,4.701 85.836,4.765 85.583 C 4.822 85.354,4.805 85.167,4.726 85.167 C 4.647 85.167,4.583 68.949,4.583 48.833 C 4.583 28.850,4.641 12.500,4.712 12.500 C 4.782 12.500,4.793 12.313,4.735 12.083 C 4.672 11.832,4.702 11.667,4.810 11.667 C 4.909 11.667,4.949 11.562,4.900 11.434 C 4.851 11.305,4.887 11.153,4.981 11.095 C 5.075 11.037,5.110 10.879,5.058 10.745 C 5.007 10.610,5.052 10.500,5.159 10.500 C 5.266 10.500,5.307 10.425,5.250 10.333 C 5.193 10.242,5.239 10.167,5.351 10.167 C 5.464 10.167,5.509 10.120,5.452 10.063 C 5.396 10.007,5.458 9.851,5.591 9.718 C 5.724 9.585,5.833 9.332,5.833 9.155 C 5.833 8.978,5.946 8.833,6.083 8.833 C 6.221 8.833,6.333 8.733,6.333 8.610 C 6.333 8.487,6.519 8.302,6.747 8.198 C 7.018 8.075,7.126 7.922,7.061 7.753 C 6.992 7.573,7.038 7.525,7.215 7.593 C 7.353 7.646,7.523 7.598,7.592 7.486 C 7.673 7.355,7.649 7.325,7.526 7.401 C 7.420 7.466,7.333 7.440,7.333 7.343 C 7.333 7.246,7.450 7.167,7.593 7.167 C 7.736 7.167,7.804 7.087,7.743 6.989 C 7.683 6.891,7.790 6.770,7.983 6.719 C 8.176 6.669,8.333 6.562,8.333 6.481 C 8.333 6.400,8.432 6.333,8.552 6.333 C 8.672 6.333,8.922 6.192,9.108 6.019 C 9.293 5.847,9.687 5.652,9.984 5.587 C 10.280 5.522,10.556 5.381,10.598 5.273 C 10.639 5.166,10.980 5.069,11.355 5.060 C 11.731 5.050,12.097 4.946,12.169 4.830 C 12.254 4.691,12.501 4.650,12.880 4.712 C 13.200 4.764,13.529 4.737,13.614 4.653 C 13.907 4.360,385.623 4.358,386.250 4.651 M12.233 10.379 C 11.199 11.033,10.370 11.959,10.158 12.696 C 10.062 13.032,10.001 27.085,10.001 48.971 C 10.001 68.621,9.951 84.777,9.891 84.875 C 9.831 84.972,9.860 85.003,9.955 84.945 C 10.050 84.886,10.227 85.080,10.347 85.377 C 10.468 85.674,10.702 86.015,10.867 86.134 C 11.032 86.254,11.167 86.460,11.167 86.593 C 11.167 86.725,11.279 86.833,11.417 86.833 C 11.554 86.833,11.667 86.900,11.667 86.982 C 11.667 87.064,11.869 87.181,12.116 87.243 C 12.428 87.322,12.500 87.397,12.352 87.488 C 12.197 87.584,12.234 87.645,12.486 87.711 C 12.677 87.761,12.792 87.734,12.740 87.651 C 12.689 87.568,12.726 87.500,12.823 87.500 C 12.921 87.500,13.000 87.582,13.000 87.681 C 13.000 87.812,24.814 87.843,55.077 87.792 C 78.219 87.752,97.126 87.765,97.092 87.819 C 97.059 87.873,97.655 87.917,98.417 87.917 C 99.178 87.917,99.777 87.877,99.748 87.830 C 99.718 87.782,119.331 87.744,143.331 87.746 C 167.331 87.748,186.945 87.787,186.917 87.833 C 186.888 87.879,189.776 87.917,193.333 87.917 C 196.899 87.917,199.762 87.852,199.713 87.773 C 199.616 87.617,236.142 87.799,236.397 87.956 C 236.482 88.008,236.498 87.965,236.433 87.859 C 236.361 87.744,236.422 87.667,236.583 87.667 C 236.745 87.667,236.805 87.744,236.734 87.859 C 236.656 87.986,236.689 88.006,236.831 87.918 C 237.182 87.701,297.175 87.685,297.045 87.901 C 296.969 88.028,297.009 88.033,297.176 87.917 C 297.326 87.813,298.528 87.781,300.359 87.833 C 301.978 87.879,303.275 87.873,303.242 87.820 C 303.209 87.767,322.078 87.729,345.174 87.737 C 368.270 87.744,387.167 87.694,387.167 87.625 C 387.167 87.556,387.246 87.500,387.343 87.500 C 387.440 87.500,387.466 87.587,387.401 87.692 C 387.170 88.067,387.910 87.530,388.821 86.663 C 390.142 85.406,390.020 89.229,390.024 48.963 L 390.028 13.010 389.473 12.001 C 389.125 11.367,388.748 10.916,388.459 10.789 C 388.207 10.677,388.000 10.529,388.000 10.459 C 388.000 10.390,387.846 10.333,387.657 10.333 C 387.468 10.333,387.355 10.267,387.405 10.186 C 387.455 10.104,387.328 9.993,387.123 9.938 C 386.448 9.757,13.333 9.819,13.333 10.000 C 13.333 10.092,13.254 10.167,13.157 10.167 C 13.060 10.167,13.027 10.092,13.083 10.000 C 13.233 9.758,13.171 9.785,12.233 10.379 M59.973 24.444 L 66.000 24.554 66.000 27.610 L 66.000 30.667 67.542 30.701 L 69.083 30.736 67.542 30.791 L 66.000 30.846 66.000 32.673 L 66.000 34.500 50.167 34.500 L 34.333 34.500 34.333 39.165 L 34.333 43.831 45.375 43.874 L 56.417 43.917 56.461 48.958 L 56.505 54.000 45.419 54.000 L 34.333 54.000 34.333 63.417 L 34.333 72.833 36.958 72.870 L 39.583 72.907 37.007 72.958 C 35.590 72.986,34.388 73.079,34.335 73.164 C 34.280 73.252,32.069 73.340,29.203 73.368 L 24.166 73.417 24.167 48.972 C 24.167 29.573,24.210 24.510,24.375 24.444 C 24.688 24.317,53.065 24.317,59.973 24.444 M86.467 24.776 C 86.588 24.898,86.641 25.073,86.584 25.165 C 86.527 25.258,86.551 25.333,86.637 25.333 C 86.724 25.333,86.832 25.465,86.878 25.625 C 87.039 26.186,87.969 29.268,88.648 31.493 C 89.025 32.727,89.333 33.818,89.333 33.917 C 89.333 34.015,89.481 34.386,89.661 34.739 C 89.842 35.093,89.954 35.440,89.910 35.510 C 89.867 35.581,89.897 35.663,89.977 35.694 C 90.057 35.725,90.589 37.287,91.159 39.167 C 91.729 41.046,92.260 42.607,92.339 42.636 C 92.417 42.665,92.440 42.796,92.389 42.927 C 92.339 43.059,92.378 43.167,92.477 43.167 C 92.576 43.167,92.613 43.279,92.560 43.417 C 92.504 43.563,92.558 43.668,92.691 43.669 C 92.868 43.671,92.863 43.705,92.671 43.827 C 92.462 43.959,92.470 43.999,92.723 44.096 C 92.899 44.164,92.980 44.311,92.923 44.459 C 92.871 44.597,92.910 44.809,93.011 44.930 C 93.113 45.052,93.140 45.242,93.072 45.352 C 93.004 45.462,93.019 45.508,93.105 45.455 C 93.191 45.402,93.403 45.859,93.577 46.471 C 93.750 47.083,94.005 47.846,94.143 48.167 C 94.282 48.487,94.378 48.844,94.357 48.958 C 94.336 49.073,94.401 49.167,94.503 49.167 C 94.604 49.167,94.642 49.239,94.587 49.328 C 94.461 49.531,95.085 51.625,95.628 52.824 C 95.854 53.323,96.049 53.904,96.061 54.115 C 96.073 54.327,96.132 54.500,96.192 54.500 C 96.252 54.500,96.293 54.768,96.283 55.095 C 96.274 55.426,96.365 55.750,96.488 55.826 C 96.610 55.901,96.658 56.046,96.595 56.148 C 96.532 56.250,96.551 56.333,96.637 56.333 C 96.722 56.333,96.868 56.615,96.960 56.958 C 97.512 59.018,98.885 63.259,99.015 63.306 C 99.099 63.337,99.121 63.439,99.063 63.533 C 99.005 63.627,99.061 63.769,99.187 63.849 C 99.351 63.953,99.358 63.996,99.210 63.997 C 98.992 64.000,99.199 64.676,99.850 66.087 C 100.021 66.456,100.208 66.999,100.267 67.293 C 100.326 67.587,100.439 67.788,100.518 67.739 C 100.598 67.690,100.618 67.766,100.564 67.908 C 100.509 68.051,100.552 68.167,100.659 68.167 C 100.766 68.167,100.803 68.247,100.743 68.345 C 100.635 68.519,100.972 69.766,101.745 72.054 C 102.027 72.888,102.076 73.212,101.928 73.269 C 101.398 73.472,91.417 73.246,91.462 73.032 C 91.486 72.912,91.385 72.462,91.237 72.032 C 91.088 71.602,90.942 71.137,90.913 71.000 C 90.883 70.862,90.844 70.712,90.826 70.667 C 90.808 70.621,90.803 70.527,90.814 70.458 C 90.824 70.390,90.761 70.333,90.672 70.333 C 90.583 70.333,90.552 70.224,90.604 70.090 C 90.655 69.956,90.510 69.450,90.282 68.965 C 90.053 68.480,89.786 67.783,89.688 67.417 L 89.510 66.750 81.213 66.804 C 76.650 66.833,72.861 66.911,72.793 66.977 C 72.725 67.043,72.632 67.469,72.586 67.923 C 72.540 68.378,72.426 68.775,72.333 68.806 C 72.241 68.836,72.207 68.931,72.260 69.016 C 72.312 69.100,72.231 69.292,72.081 69.443 C 71.931 69.593,71.844 69.855,71.888 70.025 C 71.933 70.195,71.920 70.304,71.859 70.267 C 71.799 70.230,71.532 70.905,71.265 71.767 L 70.780 73.333 65.659 73.333 L 60.539 73.333 60.450 72.875 C 60.401 72.623,60.425 72.393,60.504 72.364 C 60.583 72.335,60.607 72.205,60.557 72.074 C 60.506 71.942,60.589 71.789,60.742 71.730 C 60.895 71.671,60.980 71.521,60.931 71.395 C 60.883 71.269,60.935 71.161,61.047 71.154 C 61.203 71.143,61.202 71.121,61.043 71.057 C 60.888 70.994,60.902 70.907,61.098 70.712 C 61.242 70.568,61.323 70.311,61.279 70.142 C 61.234 69.972,61.260 69.833,61.336 69.833 C 61.458 69.833,61.725 69.026,61.750 68.583 C 61.755 68.492,61.820 68.319,61.894 68.200 C 61.969 68.081,61.988 67.875,61.937 67.742 C 61.886 67.609,61.924 67.500,62.023 67.500 C 62.122 67.500,62.159 67.388,62.106 67.250 C 62.054 67.113,62.069 67.000,62.140 67.000 C 62.212 67.000,62.407 66.531,62.574 65.958 C 63.109 64.127,63.545 62.920,63.709 62.812 C 63.797 62.755,63.821 62.558,63.763 62.374 C 63.692 62.150,63.745 62.006,63.922 61.938 C 64.068 61.882,64.136 61.752,64.073 61.649 C 64.009 61.547,64.061 61.397,64.187 61.317 C 64.377 61.197,64.374 61.170,64.167 61.164 C 63.972 61.158,63.986 61.104,64.230 60.919 C 64.429 60.768,64.510 60.558,64.454 60.341 C 64.405 60.153,64.441 60.000,64.533 60.000 C 64.626 60.000,64.659 59.887,64.606 59.750 C 64.554 59.612,64.591 59.500,64.690 59.500 C 64.789 59.500,64.821 59.375,64.762 59.222 C 64.703 59.069,64.720 58.900,64.800 58.847 C 64.938 58.754,65.343 57.557,66.169 54.799 C 66.381 54.092,66.610 53.548,66.678 53.591 C 66.746 53.633,66.763 53.517,66.715 53.334 C 66.667 53.150,66.705 53.000,66.798 53.000 C 66.892 53.000,66.929 52.847,66.880 52.659 C 66.824 52.448,66.900 52.238,67.078 52.108 C 67.258 51.976,67.378 51.635,67.401 51.187 C 67.421 50.795,67.537 50.413,67.660 50.338 C 67.782 50.262,67.836 50.080,67.780 49.933 C 67.723 49.787,67.758 49.667,67.856 49.667 C 67.955 49.667,67.992 49.554,67.940 49.417 C 67.887 49.279,67.920 49.167,68.013 49.167 C 68.105 49.167,68.166 49.073,68.148 48.958 C 68.130 48.844,68.245 48.457,68.404 48.100 C 68.563 47.742,68.657 47.314,68.614 47.149 C 68.571 46.984,68.606 46.826,68.693 46.797 C 68.780 46.768,68.915 46.483,68.993 46.164 C 69.072 45.845,69.338 44.946,69.586 44.167 C 69.833 43.387,70.077 42.564,70.128 42.336 C 70.179 42.109,70.323 41.820,70.449 41.694 C 70.575 41.568,70.635 41.329,70.582 41.163 C 70.530 40.997,70.564 40.813,70.660 40.754 C 70.755 40.695,70.833 40.464,70.833 40.240 C 70.833 40.016,70.916 39.833,71.018 39.833 C 71.119 39.833,71.159 39.721,71.106 39.583 C 71.054 39.446,71.088 39.333,71.183 39.333 C 71.280 39.333,71.309 39.187,71.250 39.000 C 71.192 38.817,71.212 38.667,71.295 38.667 C 71.415 38.667,71.889 37.535,71.923 37.167 C 71.927 37.121,72.024 36.811,72.139 36.478 C 72.253 36.145,72.335 35.807,72.320 35.728 C 72.306 35.648,72.312 35.527,72.334 35.458 C 72.357 35.390,72.391 35.277,72.410 35.208 C 72.429 35.140,72.544 34.858,72.665 34.583 C 72.786 34.308,72.896 34.008,72.910 33.917 C 72.982 33.426,73.221 32.833,73.346 32.833 C 73.425 32.833,73.446 32.721,73.394 32.583 C 73.341 32.446,73.362 32.333,73.441 32.333 C 73.519 32.333,73.591 32.105,73.601 31.827 C 73.611 31.549,73.761 31.206,73.935 31.065 C 74.108 30.924,74.153 30.858,74.035 30.918 C 73.777 31.050,73.947 30.151,74.214 29.977 C 74.303 29.918,74.325 29.787,74.262 29.685 C 74.199 29.583,74.234 29.500,74.341 29.500 C 74.448 29.500,74.492 29.387,74.440 29.250 C 74.387 29.113,74.424 29.000,74.523 29.000 C 74.622 29.000,74.659 28.887,74.606 28.750 C 74.554 28.613,74.588 28.500,74.682 28.500 C 74.777 28.500,74.841 28.369,74.825 28.208 C 74.808 28.048,74.804 27.860,74.814 27.792 C 74.825 27.723,74.827 27.619,74.819 27.560 C 74.811 27.502,74.899 27.396,75.014 27.325 C 75.128 27.254,75.222 26.964,75.222 26.681 C 75.222 26.398,75.273 26.167,75.334 26.167 C 75.428 26.167,75.635 25.604,75.930 24.546 C 76.014 24.241,86.154 24.463,86.467 24.776 M118.167 48.792 L 118.083 73.250 113.167 73.250 L 108.250 73.250 108.250 48.917 L 108.250 24.583 113.000 24.496 C 115.612 24.448,117.862 24.392,118.000 24.371 C 118.222 24.338,118.241 27.114,118.167 48.792 M234.833 24.573 C 234.833 24.782,233.474 27.050,233.255 27.206 C 233.145 27.284,233.143 27.330,233.250 27.333 C 233.361 27.337,233.361 27.380,233.250 27.461 C 232.981 27.658,232.167 28.916,232.167 29.134 C 232.167 29.244,232.110 29.334,232.042 29.334 C 231.874 29.336,231.333 30.299,231.333 30.597 C 231.333 30.727,231.277 30.835,231.208 30.837 C 231.140 30.838,230.862 31.213,230.591 31.670 C 230.320 32.126,230.026 32.500,229.938 32.500 C 229.850 32.500,229.827 32.549,229.886 32.609 C 229.946 32.668,229.865 32.817,229.706 32.939 C 229.452 33.133,229.447 33.183,229.667 33.343 C 229.889 33.505,229.889 33.518,229.667 33.456 C 229.439 33.393,228.682 34.439,228.602 34.926 C 228.586 35.023,228.404 35.284,228.197 35.506 C 227.990 35.728,227.778 36.080,227.725 36.288 C 227.673 36.496,227.582 36.667,227.523 36.667 C 227.463 36.667,227.319 36.883,227.202 37.147 C 227.085 37.411,226.809 37.837,226.588 38.095 C 226.367 38.352,226.230 38.635,226.285 38.724 C 226.340 38.812,226.304 38.835,226.204 38.773 C 226.103 38.711,225.972 38.827,225.906 39.039 C 225.841 39.247,225.737 39.454,225.674 39.500 C 225.611 39.546,225.334 39.996,225.058 40.500 C 224.781 41.004,224.411 41.679,224.236 42.000 C 224.060 42.321,223.865 42.622,223.802 42.670 C 223.739 42.718,223.606 42.972,223.506 43.235 C 223.406 43.498,223.278 43.667,223.222 43.611 C 223.166 43.555,222.965 43.826,222.775 44.213 C 222.586 44.600,222.333 45.016,222.215 45.137 C 222.097 45.258,222.000 45.464,222.000 45.595 C 222.000 45.726,221.925 45.833,221.833 45.833 C 221.742 45.833,221.667 45.946,221.667 46.083 C 221.667 46.221,221.597 46.333,221.511 46.333 C 221.426 46.333,221.306 46.490,221.245 46.681 C 221.102 47.133,220.148 48.667,220.011 48.667 C 219.952 48.667,219.893 48.821,219.878 49.010 C 219.864 49.199,219.657 49.508,219.417 49.696 C 219.178 49.884,219.024 50.080,219.075 50.130 C 219.126 50.181,219.043 50.360,218.891 50.528 C 218.739 50.696,218.683 50.834,218.766 50.836 C 218.849 50.837,218.834 50.894,218.732 50.961 C 218.495 51.119,216.833 53.776,216.833 53.998 C 216.833 54.091,216.754 54.167,216.657 54.167 C 216.560 54.167,216.527 54.242,216.584 54.335 C 216.641 54.427,216.571 54.547,216.427 54.602 C 216.284 54.657,216.167 54.775,216.167 54.863 C 216.167 54.951,216.053 55.137,215.915 55.275 C 215.777 55.414,215.709 55.600,215.764 55.689 C 215.819 55.778,215.700 55.993,215.500 56.167 C 215.300 56.340,215.180 56.553,215.234 56.640 C 215.287 56.727,215.238 56.834,215.124 56.878 C 215.010 56.922,214.580 57.530,214.168 58.229 C 213.756 58.928,213.362 59.500,213.293 59.500 C 213.223 59.500,213.167 59.578,213.167 59.674 C 213.167 59.769,213.017 60.008,212.833 60.205 C 212.650 60.402,212.501 60.642,212.503 60.740 C 212.504 60.837,212.578 60.804,212.667 60.667 C 212.756 60.529,212.829 60.483,212.831 60.564 C 212.832 60.645,212.642 60.889,212.407 61.107 C 212.173 61.324,212.027 61.576,212.084 61.667 C 212.140 61.759,212.113 61.833,212.023 61.833 C 211.837 61.833,211.167 62.860,211.167 63.145 C 211.167 63.283,214.303 63.333,223.000 63.333 L 234.833 63.333 234.833 68.333 L 234.833 73.333 213.915 73.333 C 193.039 73.333,192.998 73.333,193.205 73.000 C 193.320 72.817,193.468 72.667,193.535 72.667 C 193.602 72.667,193.613 72.554,193.560 72.417 C 193.500 72.260,193.562 72.167,193.725 72.167 C 193.891 72.167,194.025 71.952,194.097 71.570 C 194.169 71.184,194.334 70.923,194.563 70.831 C 194.757 70.752,194.859 70.683,194.789 70.677 C 194.677 70.668,194.857 70.329,195.635 69.083 C 195.749 68.900,195.887 68.619,195.941 68.458 C 195.995 68.298,196.105 68.167,196.186 68.167 C 196.267 68.167,196.333 68.051,196.333 67.909 C 196.333 67.767,196.524 67.474,196.756 67.259 C 196.989 67.043,197.213 66.690,197.254 66.475 C 197.296 66.260,197.424 66.007,197.540 65.913 C 197.802 65.700,198.145 65.176,198.274 64.792 C 198.328 64.631,198.438 64.500,198.519 64.500 C 198.600 64.500,198.667 64.423,198.667 64.329 C 198.667 64.235,198.967 63.683,199.333 63.103 C 199.700 62.522,200.000 61.964,200.000 61.863 C 200.000 61.761,200.227 61.446,200.504 61.163 C 200.781 60.879,200.969 60.585,200.921 60.508 C 200.874 60.431,200.952 60.323,201.095 60.269 C 201.238 60.214,201.308 60.093,201.251 60.001 C 201.194 59.909,201.226 59.833,201.323 59.833 C 201.421 59.833,201.481 59.776,201.458 59.705 C 201.435 59.635,201.585 59.396,201.792 59.174 C 201.998 58.952,202.260 58.560,202.374 58.302 C 202.488 58.044,202.642 57.833,202.717 57.833 C 202.792 57.833,202.807 57.758,202.750 57.667 C 202.693 57.575,202.726 57.500,202.823 57.500 C 202.921 57.500,203.000 57.387,203.000 57.250 C 203.000 57.112,203.150 56.850,203.333 56.667 C 203.517 56.483,203.667 56.296,203.667 56.250 C 203.667 56.204,203.667 56.054,203.667 55.917 C 203.667 55.779,203.779 55.667,203.917 55.667 C 204.054 55.667,204.149 55.610,204.128 55.542 C 204.107 55.473,204.238 55.245,204.420 55.036 C 204.601 54.827,204.745 54.602,204.738 54.536 C 204.732 54.470,204.830 54.313,204.956 54.187 C 205.082 54.060,205.150 53.865,205.107 53.752 C 205.064 53.639,205.283 53.255,205.594 52.898 C 205.906 52.542,206.162 52.154,206.163 52.036 C 206.168 51.703,206.686 50.992,206.850 51.093 C 206.930 51.143,206.952 51.068,206.897 50.925 C 206.831 50.754,206.894 50.667,207.083 50.667 C 207.269 50.667,207.335 50.579,207.273 50.417 C 207.220 50.279,207.254 50.167,207.348 50.167 C 207.443 50.167,207.473 50.092,207.417 50.000 C 207.360 49.908,207.393 49.833,207.490 49.833 C 207.587 49.833,207.652 49.777,207.634 49.708 C 207.571 49.469,207.858 48.829,207.992 48.912 C 208.066 48.957,208.320 48.701,208.557 48.343 C 208.857 47.889,208.927 47.666,208.786 47.609 C 208.672 47.562,208.710 47.521,208.875 47.513 C 209.035 47.506,209.167 47.427,209.167 47.339 C 209.167 47.250,209.035 47.215,208.875 47.260 C 208.715 47.306,208.758 47.252,208.971 47.141 C 209.184 47.029,209.504 46.652,209.682 46.302 C 209.861 45.953,210.078 45.667,210.165 45.667 C 210.252 45.667,210.280 45.554,210.227 45.417 C 210.167 45.260,210.229 45.167,210.394 45.167 C 210.559 45.167,210.621 45.074,210.560 44.917 C 210.501 44.763,210.561 44.667,210.714 44.667 C 210.851 44.667,210.953 44.535,210.940 44.375 C 210.927 44.215,211.010 44.102,211.125 44.125 C 211.299 44.160,211.428 43.770,211.292 43.621 C 211.269 43.596,211.413 43.400,211.613 43.186 C 211.812 42.972,211.935 42.692,211.887 42.565 C 211.836 42.433,211.901 42.333,212.039 42.333 C 212.172 42.333,212.424 42.052,212.599 41.708 C 212.774 41.365,212.983 41.035,213.063 40.977 C 213.144 40.918,213.166 40.800,213.113 40.714 C 213.059 40.628,213.233 40.319,213.498 40.029 C 213.764 39.738,213.938 39.500,213.885 39.500 C 213.831 39.500,213.986 39.302,214.227 39.061 C 214.469 38.819,214.667 38.528,214.667 38.414 C 214.667 38.301,214.783 38.111,214.924 37.994 C 215.066 37.876,215.143 37.679,215.096 37.557 C 215.049 37.434,215.088 37.333,215.182 37.333 C 215.276 37.333,215.299 37.246,215.232 37.138 C 215.154 37.012,215.199 36.977,215.362 37.039 C 215.604 37.132,215.635 37.069,215.706 36.345 C 215.724 36.168,215.815 36.037,215.909 36.054 C 216.003 36.070,216.251 35.746,216.460 35.333 L 216.840 34.583 204.920 34.541 L 193.000 34.498 193.000 29.506 L 193.000 24.513 194.375 24.456 C 197.658 24.319,234.833 24.427,234.833 24.573 M165.773 24.750 C 165.721 24.887,165.413 25.413,165.089 25.919 C 164.765 26.426,164.500 26.888,164.500 26.947 C 164.500 27.109,163.441 28.742,163.295 28.806 C 163.224 28.836,163.167 28.967,163.167 29.097 C 163.167 29.227,163.109 29.333,163.038 29.333 C 162.967 29.333,162.761 29.615,162.580 29.958 C 162.399 30.302,161.857 31.217,161.376 31.991 C 160.894 32.765,160.499 33.478,160.497 33.575 C 160.495 33.671,160.251 34.028,159.955 34.367 C 159.659 34.707,159.267 35.269,159.084 35.617 C 158.901 35.965,158.657 36.349,158.542 36.470 C 158.427 36.591,158.333 36.758,158.333 36.841 C 158.333 37.094,156.795 39.500,156.633 39.500 C 156.549 39.500,156.527 39.575,156.583 39.667 C 156.640 39.758,156.608 39.833,156.512 39.833 C 156.416 39.833,156.228 40.095,156.095 40.415 C 155.961 40.735,155.633 41.316,155.366 41.706 C 155.098 42.097,154.489 43.110,154.012 43.958 C 153.536 44.806,153.087 45.500,153.016 45.500 C 152.945 45.500,152.674 45.894,152.414 46.375 C 152.154 46.856,151.543 47.899,151.054 48.692 C 150.566 49.485,150.167 50.213,150.167 50.309 C 150.167 50.405,150.060 50.543,149.930 50.617 C 149.800 50.690,149.669 50.854,149.638 50.981 C 149.608 51.108,149.432 51.382,149.246 51.589 C 149.061 51.797,148.723 52.319,148.496 52.748 C 148.018 53.652,147.946 53.778,147.173 55.050 C 146.856 55.573,146.533 56.000,146.455 56.000 C 146.377 56.000,146.360 56.076,146.417 56.168 C 146.474 56.260,146.404 56.381,146.261 56.436 C 146.117 56.491,146.000 56.603,146.000 56.686 C 146.000 56.769,145.597 57.492,145.104 58.293 C 144.611 59.095,144.045 60.072,143.847 60.465 C 143.648 60.859,143.358 61.311,143.201 61.470 C 142.734 61.945,142.012 63.123,142.121 63.232 C 142.177 63.288,147.535 63.333,154.028 63.333 L 165.833 63.333 165.833 68.333 L 165.833 73.333 145.000 73.333 C 122.574 73.333,123.631 73.374,124.458 72.539 C 124.993 71.999,126.115 70.141,126.515 69.132 C 126.614 68.883,126.839 68.634,127.016 68.578 C 127.193 68.522,127.297 68.409,127.246 68.327 C 127.196 68.246,127.307 68.026,127.494 67.839 C 127.681 67.653,127.793 67.500,127.744 67.500 C 127.695 67.500,127.845 67.220,128.077 66.878 C 128.310 66.536,128.500 66.161,128.500 66.045 C 128.500 65.928,128.563 65.833,128.640 65.833 C 128.718 65.833,128.924 65.553,129.099 65.211 C 129.404 64.614,129.482 64.497,129.965 63.922 C 130.109 63.751,130.118 63.667,129.994 63.667 C 129.891 63.667,130.038 63.436,130.321 63.154 C 130.603 62.872,130.833 62.534,130.833 62.404 C 130.833 62.273,130.900 62.167,130.981 62.167 C 131.062 62.167,131.250 61.923,131.399 61.625 C 132.279 59.860,133.086 58.555,133.625 58.024 C 133.843 57.809,133.981 57.525,133.931 57.393 C 133.880 57.262,133.934 57.118,134.050 57.073 C 134.166 57.028,134.446 56.639,134.672 56.207 C 134.898 55.776,135.174 55.325,135.284 55.207 C 135.395 55.088,135.724 54.543,136.016 53.995 C 136.308 53.448,136.609 53.000,136.685 53.000 C 136.761 53.000,136.780 52.887,136.727 52.750 C 136.665 52.589,136.730 52.500,136.909 52.500 C 137.061 52.500,137.140 52.425,137.083 52.333 C 137.027 52.242,137.060 52.167,137.157 52.167 C 137.254 52.167,137.333 52.054,137.333 51.917 C 137.333 51.779,137.390 51.666,137.458 51.666 C 137.570 51.665,138.103 50.844,138.190 50.538 C 138.209 50.471,138.474 50.027,138.779 49.550 C 139.084 49.073,139.333 48.604,139.333 48.508 C 139.333 48.412,139.403 48.333,139.487 48.333 C 139.572 48.333,139.724 48.082,139.825 47.775 C 139.927 47.467,140.193 47.044,140.416 46.834 C 140.640 46.623,140.787 46.393,140.743 46.322 C 140.699 46.250,140.888 45.944,141.165 45.642 C 141.441 45.340,141.667 45.002,141.667 44.891 C 141.667 44.781,141.760 44.590,141.875 44.468 C 141.990 44.345,142.233 43.946,142.416 43.581 C 142.599 43.216,142.843 42.818,142.958 42.696 C 143.073 42.575,143.167 42.369,143.167 42.238 C 143.167 42.107,143.275 42.000,143.407 42.000 C 143.539 42.000,143.701 41.913,143.766 41.808 C 143.844 41.681,143.805 41.657,143.651 41.737 C 143.522 41.803,143.548 41.750,143.708 41.619 C 143.869 41.487,144.000 41.294,144.000 41.190 C 144.000 41.085,144.079 41.000,144.177 41.000 C 144.274 41.000,144.311 40.931,144.259 40.848 C 144.207 40.764,144.221 40.670,144.291 40.639 C 144.360 40.608,144.559 40.321,144.733 40.000 C 144.907 39.679,145.264 39.079,145.526 38.667 C 145.788 38.254,146.016 37.842,146.033 37.750 C 146.064 37.589,146.198 37.399,146.617 36.931 C 146.727 36.807,146.771 36.660,146.714 36.603 C 146.658 36.546,146.707 36.500,146.823 36.500 C 146.940 36.500,146.994 36.391,146.943 36.259 C 146.887 36.112,146.979 35.976,147.178 35.913 C 147.358 35.856,147.462 35.740,147.409 35.655 C 147.357 35.570,147.398 35.500,147.500 35.500 C 147.602 35.500,147.640 35.425,147.583 35.333 C 147.527 35.242,147.551 35.167,147.637 35.167 C 147.724 35.167,147.834 35.017,147.882 34.833 C 147.968 34.502,147.887 34.500,136.248 34.500 C 129.802 34.500,124.409 34.454,124.264 34.399 C 123.912 34.264,123.858 24.752,124.208 24.610 C 124.812 24.367,165.867 24.504,165.773 24.750 M267.164 24.909 C 267.250 25.135,267.819 26.953,268.429 28.951 C 269.039 30.949,269.637 32.742,269.758 32.935 C 269.879 33.129,270.089 33.692,270.225 34.185 C 271.062 37.217,273.038 43.416,273.187 43.472 C 273.267 43.503,273.333 43.623,273.333 43.740 C 273.333 43.856,273.773 45.369,274.311 47.101 C 274.848 48.833,275.536 51.056,275.839 52.042 C 276.141 53.027,276.460 53.833,276.547 53.833 C 276.634 53.833,276.666 53.983,276.618 54.167 C 276.570 54.350,276.585 54.500,276.652 54.500 C 276.777 54.500,276.835 54.678,278.000 58.583 C 278.382 59.867,278.914 61.575,279.181 62.379 C 279.448 63.183,279.667 63.952,279.667 64.087 C 279.667 64.223,279.750 64.333,279.851 64.333 C 279.953 64.333,279.994 64.441,279.944 64.573 C 279.893 64.704,279.911 64.835,279.983 64.864 C 280.054 64.893,280.507 66.229,280.988 67.833 C 281.829 70.636,282.463 72.685,282.626 73.125 C 282.730 73.409,272.413 73.431,272.238 73.147 C 272.109 72.938,271.110 69.748,270.731 68.333 C 270.596 67.829,270.439 67.304,270.383 67.167 C 270.326 67.029,270.295 66.853,270.312 66.776 C 270.330 66.698,266.554 66.660,261.923 66.692 C 257.291 66.724,253.495 66.787,253.488 66.833 C 253.390 67.463,253.288 67.796,253.105 68.078 C 252.850 68.473,252.597 69.325,252.647 69.625 C 252.666 69.740,252.606 69.833,252.515 69.833 C 252.423 69.833,252.292 70.115,252.223 70.458 C 252.073 71.211,252.079 71.188,251.957 71.500 C 251.904 71.637,251.754 72.087,251.624 72.500 L 251.389 73.250 246.195 73.294 C 243.338 73.318,241.000 73.292,241.000 73.236 C 241.000 73.101,241.496 71.317,241.622 71.000 C 241.677 70.862,241.731 70.712,241.744 70.667 C 241.756 70.621,241.814 70.433,241.871 70.250 C 241.929 70.067,242.255 69.017,242.594 67.917 C 242.934 66.817,243.258 65.879,243.315 65.833 C 243.371 65.787,243.417 65.675,243.418 65.583 C 243.418 65.492,243.544 65.079,243.698 64.667 C 243.979 63.910,244.526 62.169,245.920 57.583 C 246.339 56.208,246.797 54.873,246.938 54.616 C 247.080 54.360,247.157 54.048,247.109 53.924 C 247.062 53.800,247.122 53.564,247.243 53.398 C 247.364 53.233,247.426 53.000,247.380 52.882 C 247.335 52.764,247.389 52.667,247.500 52.667 C 247.611 52.667,247.659 52.554,247.606 52.417 C 247.554 52.279,247.572 52.167,247.648 52.167 C 247.723 52.167,247.951 51.585,248.153 50.875 C 248.356 50.165,248.740 48.871,249.006 48.000 C 249.272 47.129,249.586 46.098,249.702 45.708 C 249.819 45.319,249.976 45.000,250.050 45.000 C 250.125 45.000,250.140 44.925,250.083 44.833 C 250.027 44.742,250.072 44.667,250.185 44.667 C 250.297 44.667,250.340 44.617,250.279 44.557 C 250.219 44.497,250.253 44.347,250.355 44.224 C 250.457 44.101,250.497 44.000,250.444 44.000 C 250.391 44.000,250.452 43.707,250.578 43.348 C 250.704 42.990,250.760 42.648,250.700 42.589 C 250.641 42.530,250.669 42.430,250.761 42.366 C 250.926 42.252,251.707 39.892,252.675 36.584 C 252.943 35.668,253.230 34.896,253.313 34.868 C 253.397 34.840,253.423 34.659,253.373 34.466 C 253.315 34.246,253.346 34.155,253.455 34.222 C 253.551 34.281,253.619 34.237,253.607 34.123 C 253.594 34.010,253.866 33.054,254.210 32.000 C 254.895 29.903,256.500 24.700,256.500 24.577 C 256.500 24.535,258.864 24.500,261.754 24.500 L 267.008 24.500 267.164 24.909 M298.705 27.542 C 298.730 29.215,298.731 40.202,298.707 51.958 L 298.664 73.333 293.665 73.333 L 288.667 73.333 288.667 72.333 C 288.667 71.360,288.655 71.333,288.208 71.308 L 287.750 71.283 288.208 71.214 L 288.667 71.145 288.667 47.822 L 288.667 24.500 293.663 24.500 L 298.659 24.500 298.705 27.542 M325.152 24.675 C 327.962 25.027,332.299 26.330,332.833 26.982 C 332.879 27.038,333.254 27.249,333.667 27.451 C 334.808 28.011,335.681 28.543,336.137 28.958 C 336.363 29.165,336.638 29.333,336.747 29.333 C 337.120 29.333,340.767 33.080,341.711 34.432 C 342.229 35.174,342.768 35.876,342.908 35.993 C 343.048 36.109,343.122 36.271,343.072 36.352 C 343.021 36.433,343.072 36.500,343.185 36.500 C 343.297 36.500,343.340 36.549,343.280 36.609 C 343.221 36.668,343.270 36.799,343.390 36.900 C 344.381 37.730,346.222 44.069,346.384 47.208 C 346.402 47.552,346.473 47.833,346.542 47.833 C 346.610 47.833,346.667 48.321,346.667 48.917 C 346.667 49.512,346.606 50.000,346.531 50.000 C 346.457 50.000,346.379 50.356,346.358 50.792 C 346.216 53.812,344.346 60.146,343.357 60.958 C 343.217 61.073,343.174 61.168,343.260 61.169 C 343.346 61.171,343.337 61.227,343.239 61.294 C 342.993 61.464,342.000 62.941,342.000 63.137 C 342.000 63.225,341.887 63.341,341.750 63.394 C 341.613 63.446,341.500 63.595,341.500 63.724 C 341.500 64.404,337.155 68.326,334.917 69.666 C 334.092 70.160,333.379 70.610,333.333 70.667 C 332.963 71.121,329.051 72.435,326.543 72.948 C 324.409 73.384,304.898 73.478,304.776 73.052 C 304.691 72.755,304.597 42.833,304.643 30.708 L 304.667 24.500 314.213 24.500 C 319.871 24.500,324.326 24.571,325.152 24.675 M362.500 48.917 L 362.500 73.333 357.500 73.333 L 352.500 73.333 352.500 48.917 L 352.500 24.500 357.500 24.500 L 362.500 24.500 362.500 48.917 M287.961 27.786 C 287.711 27.824,287.261 27.825,286.961 27.787 C 286.662 27.750,286.867 27.719,287.417 27.718 C 287.967 27.717,288.212 27.748,287.961 27.786 M303.248 28.003 C 303.134 28.188,300.750 28.139,300.559 27.948 C 300.496 27.885,301.099 27.833,301.899 27.833 C 302.844 27.833,303.316 27.893,303.248 28.003 M171.199 30.791 C 170.163 30.820,168.513 30.820,167.532 30.791 C 166.552 30.762,167.400 30.738,169.417 30.738 C 171.433 30.738,172.235 30.762,171.199 30.791 M314.667 48.902 L 314.667 63.333 319.090 63.333 C 323.690 63.333,324.778 63.219,326.957 62.507 C 328.098 62.133,329.596 61.416,329.748 61.170 C 329.808 61.074,329.926 61.038,330.012 61.090 C 330.097 61.143,330.167 61.107,330.167 61.010 C 330.167 60.913,330.237 60.833,330.322 60.833 C 330.408 60.833,331.102 60.233,331.864 59.500 C 332.626 58.767,333.304 58.167,333.370 58.167 C 333.436 58.167,333.450 58.064,333.402 57.939 C 333.349 57.799,333.464 57.670,333.699 57.605 C 334.000 57.523,334.033 57.467,333.851 57.350 C 333.662 57.229,333.687 57.157,333.980 56.975 C 336.535 55.389,337.179 46.622,335.049 42.423 C 334.507 41.355,333.612 40.000,333.449 40.000 C 333.355 40.000,333.321 39.957,333.373 39.905 C 333.508 39.770,330.876 37.341,330.397 37.159 C 330.179 37.076,330.000 36.932,330.000 36.839 C 330.000 36.566,327.489 35.384,326.065 34.987 C 324.879 34.656,324.254 34.613,319.708 34.545 L 314.667 34.471 314.667 48.902 M99.042 37.789 C 98.652 37.824,98.015 37.824,97.625 37.789 C 97.235 37.754,97.554 37.725,98.333 37.725 C 99.112 37.725,99.431 37.754,99.042 37.789 M80.834 42.042 C 80.714 42.431,80.602 42.862,80.585 43.000 C 80.528 43.460,80.115 44.667,80.015 44.667 C 79.961 44.667,79.905 44.864,79.891 45.105 C 79.877 45.346,79.773 45.601,79.660 45.671 C 79.547 45.741,79.418 46.181,79.373 46.649 C 79.328 47.117,79.228 47.500,79.151 47.500 C 79.074 47.500,79.054 47.612,79.106 47.750 C 79.159 47.887,79.119 48.000,79.018 48.000 C 78.916 48.000,78.833 48.219,78.833 48.486 C 78.833 48.753,78.771 48.997,78.695 49.028 C 78.574 49.076,77.223 53.107,77.082 53.842 C 76.945 54.550,76.600 55.500,76.479 55.500 C 76.405 55.500,76.384 55.605,76.433 55.733 C 76.482 55.861,76.443 56.016,76.345 56.076 C 75.515 56.589,76.152 56.667,81.180 56.667 L 86.193 56.667 86.080 56.125 C 85.930 55.404,85.530 54.795,85.300 54.937 C 85.187 55.007,85.162 54.975,85.236 54.856 C 85.302 54.749,85.423 54.703,85.505 54.753 C 85.587 54.804,85.545 54.486,85.411 54.048 C 85.278 53.609,85.003 52.706,84.802 52.042 C 84.601 51.377,84.383 50.833,84.317 50.833 C 84.251 50.833,84.237 50.683,84.285 50.500 C 84.333 50.317,84.305 50.167,84.222 50.167 C 84.140 50.167,84.056 49.965,84.036 49.718 C 84.015 49.471,83.921 49.221,83.827 49.163 C 83.733 49.104,83.708 48.919,83.773 48.751 C 83.860 48.523,83.834 48.480,83.669 48.582 C 83.503 48.684,83.471 48.630,83.539 48.367 C 83.590 48.174,83.562 47.993,83.478 47.965 C 83.393 47.937,83.207 47.502,83.063 46.999 C 82.920 46.495,82.697 45.713,82.569 45.261 C 82.441 44.808,82.258 44.390,82.162 44.331 C 82.067 44.272,82.037 44.098,82.096 43.945 C 82.156 43.788,82.122 43.667,82.018 43.667 C 81.916 43.667,81.833 43.587,81.833 43.490 C 81.833 43.393,81.927 43.361,82.042 43.419 C 82.156 43.477,82.120 43.418,81.961 43.288 C 81.802 43.157,81.719 43.003,81.777 42.946 C 81.905 42.817,81.356 41.333,81.179 41.333 C 81.110 41.333,80.955 41.652,80.834 42.042 M261.617 41.458 C 261.579 41.527,261.227 42.652,260.834 43.958 C 260.440 45.265,260.057 46.333,259.981 46.333 C 259.906 46.333,259.887 46.446,259.940 46.583 C 259.992 46.721,259.965 46.833,259.879 46.833 C 259.793 46.833,259.720 46.927,259.718 47.042 C 259.715 47.156,259.360 48.375,258.929 49.750 C 257.426 54.541,256.833 56.469,256.833 56.567 C 256.833 56.622,259.130 56.667,261.937 56.667 C 266.387 56.667,267.015 56.636,266.839 56.424 C 266.729 56.290,266.686 56.103,266.745 56.007 C 266.805 55.912,266.785 55.833,266.701 55.833 C 266.617 55.833,266.378 55.252,266.169 54.542 C 265.960 53.831,265.583 52.612,265.331 51.833 C 265.078 51.054,264.741 49.948,264.581 49.375 C 264.421 48.802,264.234 48.333,264.166 48.333 C 264.097 48.333,264.040 48.165,264.037 47.958 C 264.035 47.752,263.939 47.358,263.824 47.083 C 263.591 46.525,263.489 46.185,263.462 45.875 C 263.453 45.760,263.382 45.667,263.306 45.667 C 263.229 45.667,263.167 45.571,263.167 45.454 C 263.167 45.337,262.985 44.680,262.764 43.995 C 262.542 43.310,262.277 42.431,262.174 42.042 C 262.001 41.385,261.783 41.157,261.617 41.458 M82.381 48.789 C 81.903 48.823,81.078 48.823,80.548 48.790 C 80.017 48.757,80.408 48.729,81.417 48.729 C 82.425 48.729,82.859 48.756,82.381 48.789 M119.125 48.782 C 118.965 48.823,118.702 48.823,118.542 48.782 C 118.381 48.740,118.513 48.705,118.833 48.705 C 119.154 48.705,119.285 48.740,119.125 48.782 M122.715 48.790 C 122.146 48.822,121.171 48.823,120.549 48.790 C 119.926 48.758,120.392 48.732,121.583 48.731 C 122.775 48.731,123.284 48.757,122.715 48.790 M231.667 48.792 C 231.667 48.860,230.823 48.897,229.792 48.873 C 226.379 48.793,226.047 48.730,228.875 48.698 C 230.410 48.681,231.667 48.723,231.667 48.792 M263.708 48.784 C 263.502 48.824,263.165 48.824,262.958 48.784 C 262.752 48.745,262.921 48.712,263.333 48.712 C 263.746 48.712,263.915 48.745,263.708 48.784 M171.125 49.119 C 170.873 49.158,170.460 49.158,170.208 49.119 C 169.956 49.081,170.162 49.050,170.667 49.050 C 171.171 49.050,171.377 49.081,171.125 49.119 M326.875 49.118 C 326.669 49.157,326.331 49.157,326.125 49.118 C 325.919 49.078,326.087 49.045,326.500 49.045 C 326.912 49.045,327.081 49.078,326.875 49.118 M130.615 54.392 C 130.653 54.431,130.462 54.453,130.190 54.442 C 129.918 54.430,129.728 54.369,129.768 54.304 C 129.839 54.189,130.478 54.256,130.615 54.392 M372.425 63.655 C 374.855 64.510,376.517 68.341,375.268 70.208 C 375.100 70.460,375.014 70.667,375.079 70.667 C 375.339 70.667,374.115 72.105,373.509 72.512 C 372.711 73.048,371.086 73.413,370.098 73.278 C 369.287 73.167,367.343 72.337,367.337 72.100 C 367.335 72.018,367.090 71.713,366.792 71.422 C 365.299 69.968,365.397 66.060,366.948 65.192 C 367.085 65.116,367.190 65.004,367.182 64.943 C 367.173 64.883,367.206 64.835,367.253 64.837 C 367.347 64.841,367.655 64.602,368.204 64.100 C 369.038 63.337,370.946 63.136,372.425 63.655 M37.380 68.455 C 36.993 68.490,36.318 68.490,35.880 68.456 C 35.442 68.422,35.758 68.393,36.583 68.392 C 37.408 68.392,37.767 68.420,37.380 68.455 M178.296 72.954 C 177.955 72.990,177.355 72.991,176.963 72.956 C 176.571 72.920,176.850 72.891,177.583 72.890 C 178.317 72.890,178.637 72.919,178.296 72.954 M173.963 74.288 C 173.621 74.324,173.021 74.324,172.629 74.289 C 172.237 74.254,172.517 74.224,173.250 74.224 C 173.983 74.223,174.304 74.252,173.963 74.288 M185.963 74.288 C 185.621 74.324,185.021 74.324,184.629 74.289 C 184.237 74.254,184.517 74.224,185.250 74.224 C 185.983 74.223,186.304 74.252,185.963 74.288 M148.127 77.115 C 147.968 77.156,147.668 77.158,147.460 77.118 C 147.253 77.078,147.383 77.044,147.750 77.042 C 148.117 77.040,148.286 77.073,148.127 77.115 M312.547 85.622 C 312.160 85.657,311.485 85.657,311.047 85.623 C 310.609 85.588,310.925 85.560,311.750 85.559 C 312.575 85.559,312.934 85.587,312.547 85.622 M307.958 86.957 C 307.340 86.989,306.327 86.989,305.708 86.957 C 305.090 86.925,305.596 86.899,306.833 86.899 C 308.071 86.899,308.577 86.925,307.958 86.957 M186.213 93.788 C 185.827 93.823,185.152 93.824,184.713 93.789 C 184.275 93.755,184.592 93.726,185.417 93.726 C 186.242 93.725,186.600 93.754,186.213 93.788 M207.208 93.789 C 206.819 93.824,206.181 93.824,205.792 93.789 C 205.402 93.754,205.721 93.725,206.500 93.725 C 207.279 93.725,207.598 93.754,207.208 93.789 M216.294 93.781 C 216.134 93.823,215.834 93.824,215.627 93.785 C 215.420 93.745,215.550 93.711,215.917 93.709 C 216.283 93.707,216.453 93.739,216.294 93.781 M338.796 93.954 C 338.455 93.990,337.855 93.991,337.463 93.956 C 337.071 93.920,337.350 93.891,338.083 93.890 C 338.817 93.890,339.137 93.919,338.796 93.954 M286.248 96.670 C 286.155 96.821,286.093 96.817,285.990 96.651 C 285.814 96.366,285.987 96.087,286.204 96.304 C 286.296 96.396,286.316 96.560,286.248 96.670 M189.294 96.448 C 189.134 96.490,188.834 96.491,188.627 96.451 C 188.420 96.411,188.550 96.377,188.917 96.375 C 189.283 96.374,189.453 96.406,189.294 96.448 M112.375 96.787 C 112.077 96.824,111.590 96.824,111.292 96.787 C 110.994 96.750,111.237 96.720,111.833 96.720 C 112.429 96.720,112.673 96.750,112.375 96.787 M116.375 96.784 C 116.169 96.824,115.831 96.824,115.625 96.784 C 115.419 96.745,115.587 96.712,116.000 96.712 C 116.412 96.712,116.581 96.745,116.375 96.784 M341.044 96.784 C 340.839 96.824,340.464 96.825,340.211 96.786 C 339.957 96.748,340.125 96.716,340.583 96.714 C 341.042 96.713,341.249 96.744,341.044 96.784 " stroke="none" fill="#e4ece4" fill-rule="evenodd"></path><path id="path1" d="M13.891 4.628 C 13.785 4.695,96.866 4.750,198.516 4.750 C 300.165 4.750,383.333 4.694,383.333 4.625 C 383.333 4.463,14.145 4.466,13.891 4.628 M4.583 13.000 C 4.521 13.197,4.507 13.396,4.553 13.442 C 4.599 13.488,4.687 13.364,4.750 13.167 C 4.813 12.970,4.826 12.771,4.780 12.725 C 4.735 12.679,4.646 12.803,4.583 13.000 M390.042 13.750 C 390.044 14.117,390.078 14.247,390.118 14.040 C 390.158 13.832,390.156 13.532,390.115 13.373 C 390.073 13.214,390.040 13.383,390.042 13.750 M390.000 19.306 C 390.000 22.375,390.059 24.000,390.169 24.000 C 390.338 24.000,390.249 14.860,390.079 14.690 C 390.035 14.647,390.000 16.724,390.000 19.306 M390.048 25.083 C 390.049 25.542,390.081 25.709,390.120 25.456 C 390.158 25.203,390.157 24.828,390.117 24.623 C 390.078 24.418,390.046 24.625,390.048 25.083 M24.278 24.611 C 24.123 24.765,24.137 73.333,24.292 73.333 C 24.360 73.333,24.417 62.346,24.417 48.917 C 24.417 35.487,24.410 24.500,24.403 24.500 C 24.395 24.500,24.339 24.550,24.278 24.611 M390.031 29.750 C 390.034 31.308,390.088 33.033,390.151 33.583 C 390.214 34.133,390.238 32.933,390.203 30.917 C 390.168 28.900,390.114 27.175,390.083 27.083 C 390.052 26.992,390.029 28.192,390.031 29.750 M304.747 51.833 C 304.747 63.521,304.767 68.302,304.792 62.458 C 304.816 56.615,304.816 47.052,304.792 41.208 C 304.767 35.365,304.747 40.146,304.747 51.833 M390.141 39.042 C 390.127 39.615,390.098 40.778,390.076 41.627 C 390.055 42.476,390.085 43.199,390.144 43.235 C 390.202 43.271,390.268 42.107,390.289 40.650 C 390.310 39.192,390.292 38.000,390.247 38.000 C 390.203 38.000,390.155 38.469,390.141 39.042 M390.089 45.417 C 390.148 46.425,390.229 47.282,390.267 47.322 C 390.403 47.460,390.259 43.983,390.121 43.784 C 390.044 43.674,390.030 44.408,390.089 45.417 M390.101 47.764 C 389.955 48.145,389.982 49.546,390.140 49.796 C 390.215 49.914,390.269 49.452,390.262 48.754 C 390.249 47.385,390.248 47.381,390.101 47.764 M390.101 51.097 C 389.982 51.407,389.962 60.927,390.080 60.808 C 390.169 60.720,390.344 50.833,390.257 50.833 C 390.227 50.833,390.157 50.952,390.101 51.097 M390.047 69.917 C 390.037 74.867,390.079 79.292,390.140 79.750 C 390.243 80.531,390.218 64.087,390.113 61.917 C 390.086 61.367,390.056 64.967,390.047 69.917 M390.043 82.807 C 390.040 83.754,390.091 84.467,390.157 84.390 C 390.224 84.313,390.226 83.537,390.163 82.667 L 390.048 81.083 390.043 82.807 M272.461 87.787 C 272.761 87.825,273.211 87.824,273.461 87.786 C 273.712 87.748,273.467 87.717,272.917 87.718 C 272.367 87.719,272.162 87.750,272.461 87.787 M392.713 90.042 C 392.524 90.286,392.314 90.833,392.410 90.833 C 392.446 90.833,392.588 90.608,392.725 90.333 C 392.988 89.807,392.983 89.693,392.713 90.042 " stroke="none" fill="#dce4dc" fill-rule="evenodd"></path><path id="path2" d="M17.553 4.792 C 19.553 4.818,22.778 4.818,24.720 4.791 C 26.661 4.765,25.025 4.743,21.083 4.743 C 17.142 4.743,15.553 4.765,17.553 4.792 M32.042 4.790 C 32.660 4.822,33.673 4.822,34.292 4.790 C 34.910 4.758,34.404 4.732,33.167 4.732 C 31.929 4.732,31.423 4.758,32.042 4.790 M55.958 4.792 C 59.648 4.817,65.685 4.817,69.375 4.792 C 73.065 4.767,70.046 4.746,62.667 4.746 C 55.288 4.746,52.269 4.767,55.958 4.792 M93.220 4.792 C 95.770 4.817,99.895 4.817,102.387 4.792 C 104.878 4.766,102.792 4.744,97.750 4.744 C 92.708 4.744,90.670 4.766,93.220 4.792 M126.875 4.791 C 128.502 4.819,131.165 4.819,132.792 4.791 C 134.419 4.764,133.087 4.742,129.833 4.742 C 126.579 4.742,125.248 4.764,126.875 4.791 M148.798 4.790 C 149.375 4.823,150.275 4.823,150.798 4.790 C 151.322 4.757,150.850 4.730,149.750 4.730 C 148.650 4.731,148.222 4.758,148.798 4.790 M191.222 4.792 C 208.623 4.815,237.048 4.815,254.389 4.792 C 271.729 4.768,257.492 4.749,222.750 4.749 C 188.008 4.749,173.821 4.768,191.222 4.792 M316.945 4.792 C 329.060 4.815,348.935 4.815,361.112 4.792 C 373.288 4.768,363.375 4.749,339.083 4.749 C 314.792 4.749,304.829 4.768,316.945 4.792 M383.958 4.789 C 384.348 4.824,384.985 4.824,385.375 4.789 C 385.765 4.754,385.446 4.725,384.667 4.725 C 383.887 4.725,383.569 4.754,383.958 4.789 M9.774 13.625 C 9.599 14.684,9.649 18.667,9.837 18.667 C 9.947 18.667,10.002 17.664,9.992 15.833 C 9.975 12.881,9.946 12.585,9.774 13.625 M390.235 16.083 C 390.235 17.642,390.260 18.302,390.291 17.550 C 390.321 16.798,390.321 15.523,390.291 14.717 C 390.260 13.910,390.235 14.525,390.235 16.083 M9.912 30.833 C 9.912 37.479,9.933 40.198,9.958 36.875 C 9.984 33.552,9.984 28.115,9.958 24.792 C 9.933 21.469,9.912 24.188,9.912 30.833 M390.240 28.417 C 390.240 30.892,390.263 31.927,390.291 30.718 C 390.320 29.509,390.320 27.484,390.291 26.218 C 390.263 24.952,390.240 25.942,390.240 28.417 M24.414 48.917 C 24.414 62.300,24.434 67.800,24.458 61.138 C 24.482 54.476,24.482 43.526,24.458 36.805 C 24.434 30.083,24.414 35.533,24.414 48.917 M390.228 36.083 C 390.228 37.000,390.256 37.354,390.290 36.869 C 390.324 36.385,390.323 35.635,390.289 35.203 C 390.255 34.770,390.227 35.167,390.228 36.083 M390.218 41.750 C 390.219 42.300,390.250 42.505,390.287 42.205 C 390.325 41.906,390.324 41.456,390.286 41.205 C 390.248 40.955,390.217 41.200,390.218 41.750 M9.778 43.111 C 9.585 43.304,9.647 48.500,9.843 48.500 C 9.961 48.500,10.008 47.593,9.985 45.750 C 9.967 44.237,9.937 43.000,9.920 43.000 C 9.903 43.000,9.839 43.050,9.778 43.111 M346.555 48.917 C 346.555 49.558,346.586 49.800,346.622 49.455 C 346.658 49.109,346.657 48.584,346.620 48.288 C 346.583 47.992,346.554 48.275,346.555 48.917 M9.914 66.333 C 9.914 75.821,9.934 79.702,9.958 74.958 C 9.983 70.215,9.983 62.452,9.958 57.708 C 9.934 52.965,9.914 56.846,9.914 66.333 M390.205 51.667 C 390.205 51.987,390.240 52.119,390.282 51.958 C 390.323 51.798,390.323 51.535,390.282 51.375 C 390.240 51.215,390.205 51.346,390.205 51.667 M390.246 67.750 C 390.246 74.075,390.266 76.638,390.292 73.446 C 390.317 70.254,390.317 65.079,390.292 61.946 C 390.266 58.813,390.245 61.425,390.246 67.750 M390.228 82.167 C 390.228 83.129,390.256 83.523,390.290 83.042 C 390.323 82.560,390.323 81.773,390.290 81.292 C 390.256 80.810,390.228 81.204,390.228 82.167 M9.802 84.250 C 9.839 84.571,9.899 84.833,9.935 84.833 C 9.971 84.833,10.000 84.571,10.000 84.250 C 10.000 83.929,9.940 83.667,9.867 83.667 C 9.794 83.667,9.764 83.929,9.802 84.250 M68.833 87.833 C 68.833 87.941,70.611 88.000,73.833 88.000 C 77.056 88.000,78.833 87.941,78.833 87.833 C 78.833 87.726,77.056 87.667,73.833 87.667 C 70.611 87.667,68.833 87.726,68.833 87.833 M84.667 87.833 C 84.667 88.052,90.495 88.052,90.833 87.833 C 91.000 87.726,90.008 87.671,87.875 87.669 C 85.846 87.668,84.667 87.728,84.667 87.833 M93.583 87.833 C 93.641 87.926,94.418 88.000,95.343 88.000 C 96.337 88.000,97.000 87.933,97.000 87.833 C 97.000 87.733,96.302 87.667,95.240 87.667 C 94.109 87.667,93.517 87.726,93.583 87.833 M99.833 87.833 C 99.833 87.942,102.972 88.000,108.917 88.000 C 114.861 88.000,118.000 87.942,118.000 87.833 C 118.000 87.724,114.861 87.667,108.917 87.667 C 102.972 87.667,99.833 87.724,99.833 87.833 M142.000 87.833 C 142.000 87.938,143.083 88.000,144.917 88.000 C 146.750 88.000,147.833 87.938,147.833 87.833 C 147.833 87.729,146.750 87.667,144.917 87.667 C 143.083 87.667,142.000 87.729,142.000 87.833 M157.000 87.833 C 157.000 87.940,158.556 88.000,161.333 88.000 C 164.111 88.000,165.667 87.940,165.667 87.833 C 165.667 87.726,164.111 87.667,161.333 87.667 C 158.556 87.667,157.000 87.726,157.000 87.833 M176.167 87.845 C 176.167 87.935,177.595 88.000,179.583 88.000 C 181.819 88.000,183.000 87.941,183.000 87.828 C 183.000 87.715,181.830 87.662,179.583 87.674 C 177.607 87.684,176.167 87.756,176.167 87.845 M183.583 87.833 C 183.640 87.925,184.391 88.000,185.260 88.000 C 186.198 88.000,186.833 87.933,186.833 87.833 C 186.833 87.733,186.163 87.667,185.157 87.667 C 184.082 87.667,183.517 87.726,183.583 87.833 M199.833 87.833 C 199.833 87.933,200.472 88.000,201.417 88.000 C 202.361 88.000,203.000 87.933,203.000 87.833 C 203.000 87.734,202.361 87.667,201.417 87.667 C 200.472 87.667,199.833 87.734,199.833 87.833 M203.167 87.833 C 203.167 87.939,204.524 88.000,206.907 88.000 C 209.220 88.000,210.686 87.936,210.750 87.833 C 210.818 87.724,209.530 87.667,207.010 87.667 C 204.559 87.667,203.167 87.727,203.167 87.833 M212.000 87.833 C 212.000 88.040,217.768 88.040,218.250 87.833 C 218.452 87.747,217.285 87.685,215.292 87.678 C 213.201 87.671,212.000 87.727,212.000 87.833 M240.833 87.792 C 240.833 87.860,241.302 87.896,241.875 87.870 C 243.756 87.786,243.942 87.720,242.375 87.693 C 241.527 87.679,240.833 87.723,240.833 87.792 M259.083 87.772 C 260.279 87.896,261.667 87.907,261.667 87.792 C 261.667 87.723,260.973 87.679,260.125 87.693 C 259.277 87.708,258.808 87.743,259.083 87.772 M262.167 87.833 C 262.167 87.925,262.279 88.000,262.417 88.000 C 262.554 88.000,262.667 87.925,262.667 87.833 C 262.667 87.742,262.554 87.667,262.417 87.667 C 262.279 87.667,262.167 87.742,262.167 87.833 M264.333 87.850 C 264.333 87.933,264.596 88.000,264.917 88.000 C 265.237 88.000,265.500 87.933,265.500 87.850 C 265.500 87.767,265.237 87.700,264.917 87.700 C 264.596 87.700,264.333 87.767,264.333 87.850 M265.757 87.844 C 265.885 88.052,279.614 88.053,279.742 87.845 C 279.801 87.751,277.061 87.690,272.749 87.689 C 268.385 87.688,265.697 87.748,265.757 87.844 M285.833 87.833 C 285.833 87.938,286.917 88.000,288.750 88.000 C 290.583 88.000,291.667 87.938,291.667 87.833 C 291.667 87.729,290.583 87.667,288.750 87.667 C 286.917 87.667,285.833 87.729,285.833 87.833 M303.333 87.837 C 303.333 87.950,305.217 88.003,308.921 87.996 C 312.408 87.988,314.473 87.924,314.412 87.825 C 314.273 87.601,303.333 87.613,303.333 87.837 M317.333 87.833 C 317.333 87.941,319.108 88.000,322.323 88.000 C 325.470 88.000,327.352 87.938,327.417 87.833 C 327.484 87.724,325.780 87.667,322.427 87.667 C 319.142 87.667,317.333 87.726,317.333 87.833 M339.500 87.835 C 339.500 88.064,385.941 88.063,386.083 87.833 C 386.152 87.722,378.366 87.667,362.843 87.668 C 347.506 87.669,339.500 87.726,339.500 87.835 " stroke="none" fill="#d4e3db" fill-rule="evenodd"></path><path id="path3" d="M138.958 1.125 C 140.540 1.152,143.127 1.152,144.708 1.125 C 146.290 1.097,144.996 1.075,141.833 1.075 C 138.671 1.075,137.377 1.097,138.958 1.125 M209.500 4.167 C 209.500 4.258,209.612 4.333,209.750 4.333 C 209.887 4.333,210.054 4.339,210.121 4.346 C 210.187 4.353,210.269 4.278,210.301 4.179 C 210.334 4.081,210.167 4.000,209.931 4.000 C 209.694 4.000,209.500 4.075,209.500 4.167 M210.500 4.167 C 210.500 4.258,210.838 4.333,211.250 4.333 C 211.662 4.333,212.000 4.258,212.000 4.167 C 212.000 4.075,211.662 4.000,211.250 4.000 C 210.838 4.000,210.500 4.075,210.500 4.167 M384.047 4.623 C 384.485 4.657,385.160 4.657,385.547 4.622 C 385.934 4.587,385.575 4.559,384.750 4.559 C 383.925 4.560,383.609 4.588,384.047 4.623 M12.375 4.782 C 12.535 4.823,12.798 4.823,12.958 4.782 C 13.119 4.740,12.987 4.705,12.667 4.705 C 12.346 4.705,12.215 4.740,12.375 4.782 M32.888 24.458 C 37.547 24.483,45.122 24.483,49.721 24.458 C 54.320 24.434,50.508 24.414,41.250 24.414 C 31.992 24.414,28.229 24.434,32.888 24.458 M75.944 24.444 C 75.883 24.506,75.834 24.637,75.836 24.736 C 75.837 24.848,75.887 24.840,75.967 24.715 C 76.048 24.588,76.675 24.493,77.672 24.458 L 79.250 24.403 77.653 24.368 C 76.774 24.349,76.006 24.383,75.944 24.444 M199.470 24.458 C 201.607 24.485,205.057 24.485,207.136 24.458 C 209.216 24.432,207.467 24.410,203.250 24.410 C 199.033 24.410,197.332 24.432,199.470 24.458 M216.958 24.451 C 217.165 24.491,217.502 24.491,217.708 24.451 C 217.915 24.411,217.746 24.379,217.333 24.379 C 216.921 24.379,216.752 24.411,216.958 24.451 M233.542 24.453 C 233.794 24.491,234.206 24.491,234.458 24.453 C 234.710 24.415,234.504 24.383,234.000 24.383 C 233.496 24.383,233.290 24.415,233.542 24.453 M124.074 29.500 C 124.074 32.204,124.097 33.310,124.125 31.958 C 124.153 30.606,124.153 28.394,124.125 27.042 C 124.097 25.690,124.074 26.796,124.074 29.500 M286.961 27.787 C 287.261 27.825,287.711 27.824,287.961 27.786 C 288.212 27.748,287.967 27.717,287.417 27.718 C 286.867 27.719,286.662 27.750,286.961 27.787 M300.559 27.948 C 300.750 28.139,303.134 28.188,303.248 28.003 C 303.316 27.893,302.844 27.833,301.899 27.833 C 301.099 27.833,300.496 27.885,300.559 27.948 M66.708 30.789 C 67.144 30.824,67.856 30.824,68.292 30.789 C 68.727 30.755,68.371 30.727,67.500 30.727 C 66.629 30.727,66.273 30.755,66.708 30.789 M167.532 30.791 C 168.513 30.820,170.163 30.820,171.199 30.791 C 172.235 30.762,171.433 30.738,169.417 30.738 C 167.400 30.738,166.552 30.762,167.532 30.791 M390.061 36.083 C 390.061 37.000,390.089 37.354,390.123 36.869 C 390.157 36.385,390.156 35.635,390.122 35.203 C 390.088 34.770,390.060 35.167,390.061 36.083 M304.569 39.667 C 304.569 41.271,304.594 41.927,304.624 41.125 C 304.655 40.323,304.655 39.010,304.624 38.208 C 304.594 37.406,304.569 38.063,304.569 39.667 M97.625 37.789 C 98.015 37.824,98.652 37.824,99.042 37.789 C 99.431 37.754,99.112 37.725,98.333 37.725 C 97.554 37.725,97.235 37.754,97.625 37.789 M70.167 42.250 C 70.167 42.479,70.195 42.667,70.231 42.667 C 70.266 42.667,70.330 42.479,70.374 42.250 C 70.418 42.021,70.389 41.833,70.310 41.833 C 70.231 41.833,70.167 42.021,70.167 42.250 M45.372 43.958 L 56.328 44.002 56.376 48.751 L 56.424 53.500 56.421 48.708 L 56.417 43.917 45.417 43.915 L 34.417 43.913 45.372 43.958 M80.548 48.790 C 81.078 48.823,81.903 48.823,82.381 48.789 C 82.859 48.756,82.425 48.729,81.417 48.729 C 80.408 48.729,80.017 48.757,80.548 48.790 M118.542 48.782 C 118.702 48.823,118.965 48.823,119.125 48.782 C 119.285 48.740,119.154 48.705,118.833 48.705 C 118.513 48.705,118.381 48.740,118.542 48.782 M120.549 48.790 C 121.171 48.823,122.146 48.822,122.715 48.790 C 123.284 48.757,122.775 48.731,121.583 48.731 C 120.392 48.732,119.926 48.758,120.549 48.790 M227.000 48.779 C 229.219 48.900,231.667 48.906,231.667 48.792 C 231.667 48.723,230.410 48.681,228.875 48.698 C 227.340 48.716,226.496 48.752,227.000 48.779 M262.958 48.784 C 263.165 48.824,263.502 48.824,263.708 48.784 C 263.915 48.745,263.746 48.712,263.333 48.712 C 262.921 48.712,262.752 48.745,262.958 48.784 M207.695 49.255 C 207.592 49.482,207.562 49.667,207.630 49.667 C 207.831 49.667,208.172 49.023,208.021 48.930 C 207.945 48.882,207.798 49.029,207.695 49.255 M170.208 49.119 C 170.460 49.158,170.873 49.158,171.125 49.119 C 171.377 49.081,171.171 49.050,170.667 49.050 C 170.162 49.050,169.956 49.081,170.208 49.119 M219.502 49.330 C 219.358 49.598,219.372 49.641,219.579 49.562 C 219.719 49.508,219.833 49.360,219.833 49.232 C 219.833 48.907,219.709 48.943,219.502 49.330 M326.125 49.118 C 326.331 49.157,326.669 49.157,326.875 49.118 C 327.081 49.078,326.912 49.045,326.500 49.045 C 326.087 49.045,325.919 49.078,326.125 49.118 M206.493 51.343 C 206.294 51.623,206.158 51.880,206.192 51.914 C 206.226 51.948,206.422 51.719,206.628 51.405 C 207.093 50.696,206.988 50.648,206.493 51.343 M95.772 53.667 C 95.881 54.301,95.951 54.438,96.092 54.297 C 96.142 54.247,96.068 53.953,95.927 53.644 L 95.671 53.083 95.772 53.667 M129.768 54.304 C 129.728 54.369,129.918 54.430,130.190 54.442 C 130.738 54.464,130.739 54.360,130.193 54.255 C 129.999 54.218,129.808 54.240,129.768 54.304 M203.616 56.010 C 203.542 56.291,203.569 56.317,203.763 56.156 C 204.028 55.936,204.078 55.667,203.853 55.667 C 203.772 55.667,203.665 55.821,203.616 56.010 M76.708 66.792 C 78.794 66.818,82.206 66.818,84.292 66.792 C 86.377 66.765,84.671 66.743,80.500 66.743 C 76.329 66.743,74.623 66.765,76.708 66.792 M255.133 66.791 C 255.894 66.822,257.094 66.822,257.800 66.790 C 258.506 66.759,257.883 66.734,256.417 66.734 C 254.950 66.734,254.372 66.760,255.133 66.791 M260.121 66.787 C 260.417 66.824,260.942 66.824,261.288 66.788 C 261.634 66.752,261.392 66.722,260.750 66.721 C 260.108 66.721,259.825 66.750,260.121 66.787 M72.500 67.682 C 72.500 67.720,72.430 67.995,72.345 68.293 C 72.260 68.590,72.250 68.833,72.324 68.833 C 72.479 68.833,72.711 67.822,72.584 67.696 C 72.538 67.649,72.500 67.643,72.500 67.682 M35.880 68.456 C 36.318 68.490,36.993 68.490,37.380 68.455 C 37.767 68.420,37.408 68.392,36.583 68.392 C 35.758 68.393,35.442 68.422,35.880 68.456 M35.633 72.957 C 36.394 72.988,37.594 72.988,38.300 72.957 C 39.006 72.926,38.383 72.901,36.917 72.901 C 35.450 72.901,34.872 72.927,35.633 72.957 M176.963 72.956 C 177.355 72.991,177.955 72.990,178.296 72.954 C 178.637 72.919,178.317 72.890,177.583 72.890 C 176.850 72.891,176.571 72.920,176.963 72.956 M172.629 74.289 C 173.021 74.324,173.621 74.324,173.963 74.288 C 174.304 74.252,173.983 74.223,173.250 74.224 C 172.517 74.224,172.237 74.254,172.629 74.289 M184.629 74.289 C 185.021 74.324,185.621 74.324,185.963 74.288 C 186.304 74.252,185.983 74.223,185.250 74.224 C 184.517 74.224,184.237 74.254,184.629 74.289 M147.460 77.118 C 147.668 77.158,147.968 77.156,148.127 77.115 C 148.286 77.073,148.117 77.040,147.750 77.042 C 147.383 77.044,147.253 77.078,147.460 77.118 M311.047 85.623 C 311.485 85.657,312.160 85.657,312.547 85.622 C 312.934 85.587,312.575 85.559,311.750 85.559 C 310.925 85.560,310.609 85.588,311.047 85.623 M5.097 87.167 C 5.221 87.631,5.300 87.756,5.403 87.653 C 5.441 87.614,5.363 87.395,5.229 87.166 L 4.986 86.750 5.097 87.167 M305.708 86.957 C 306.327 86.989,307.340 86.989,307.958 86.957 C 308.577 86.925,308.071 86.899,306.833 86.899 C 305.596 86.899,305.090 86.925,305.708 86.957 M7.311 90.557 C 7.414 90.680,7.444 90.834,7.379 90.899 C 7.313 90.964,7.389 90.968,7.547 90.908 C 7.905 90.770,7.915 90.567,7.570 90.434 C 7.170 90.281,7.107 90.311,7.311 90.557 M11.500 92.898 C 11.500 92.933,11.725 92.995,12.000 93.036 C 12.275 93.076,12.500 93.047,12.500 92.971 C 12.500 92.895,12.275 92.833,12.000 92.833 C 11.725 92.833,11.500 92.862,11.500 92.898 M184.713 93.789 C 185.152 93.824,185.827 93.823,186.213 93.788 C 186.600 93.754,186.242 93.725,185.417 93.726 C 184.592 93.726,184.275 93.755,184.713 93.789 M205.792 93.789 C 206.181 93.824,206.819 93.824,207.208 93.789 C 207.598 93.754,207.279 93.725,206.500 93.725 C 205.721 93.725,205.402 93.754,205.792 93.789 M215.627 93.785 C 215.834 93.824,216.134 93.823,216.294 93.781 C 216.453 93.739,216.283 93.707,215.917 93.709 C 215.550 93.711,215.420 93.745,215.627 93.785 M337.463 93.956 C 337.855 93.991,338.455 93.990,338.796 93.954 C 339.137 93.919,338.817 93.890,338.083 93.890 C 337.350 93.891,337.071 93.920,337.463 93.956 M285.946 96.285 C 285.896 96.366,285.916 96.531,285.990 96.651 C 286.093 96.817,286.155 96.821,286.248 96.670 C 286.316 96.560,286.296 96.396,286.204 96.304 C 286.111 96.211,285.997 96.203,285.946 96.285 M188.627 96.451 C 188.834 96.491,189.134 96.490,189.294 96.448 C 189.453 96.406,189.283 96.374,188.917 96.375 C 188.550 96.377,188.420 96.411,188.627 96.451 M111.292 96.787 C 111.590 96.824,112.077 96.824,112.375 96.787 C 112.673 96.750,112.429 96.720,111.833 96.720 C 111.237 96.720,110.994 96.750,111.292 96.787 M115.625 96.784 C 115.831 96.824,116.169 96.824,116.375 96.784 C 116.581 96.745,116.412 96.712,116.000 96.712 C 115.587 96.712,115.419 96.745,115.625 96.784 M340.211 96.786 C 340.464 96.825,340.839 96.824,341.044 96.784 C 341.249 96.744,341.042 96.713,340.583 96.714 C 340.125 96.716,339.957 96.748,340.211 96.786 " stroke="none" fill="#dcece4" fill-rule="evenodd"></path><path id="path4" d="M241.708 87.956 C 242.144 87.990,242.856 87.990,243.292 87.956 C 243.727 87.922,243.371 87.893,242.500 87.893 C 241.629 87.893,241.273 87.922,241.708 87.956 M259.380 87.956 C 259.818 87.990,260.493 87.990,260.880 87.955 C 261.267 87.920,260.908 87.892,260.083 87.892 C 259.258 87.893,258.942 87.922,259.380 87.956 " stroke="none" fill="#dcdcdc" fill-rule="evenodd"></path></g></svg>