<svg id="svg" version="1.1" xmlns="http://www.w3.org/2000/svg" xmlns:xlink="http://www.w3.org/1999/xlink" width="400" height="399.6055226824458" viewBox="0, 0, 400,399.6055226824458"><g id="svgg"><path id="path0" d="M186.982 0.410 C 44.016 10.708,-42.472 161.512,21.335 289.242 C 62.325 371.298,154.981 415.197,244.167 394.815 C 347.562 371.186,414.538 271.145,397.040 166.469 C 380.270 66.145,287.921 -6.860,186.982 0.410 M218.935 15.985 C 310.505 25.581,380.809 100.301,384.582 192.036 C 389.437 310.073,285.122 401.704,168.316 382.003 C 83.149 367.639,19.050 294.569,15.407 207.692 C 10.686 95.082,107.102 4.265,218.935 15.985 M187.771 37.340 C 187.012 37.413,184.349 37.663,181.854 37.895 C 87.616 46.668,20.048 136.651,37.322 230.375 C 45.653 275.576,72.460 314.814,112.032 339.729 C 116.843 342.758,132.945 351.085,133.991 351.085 C 134.420 351.085,134.517 348.198,134.517 335.379 L 134.517 319.673 133.069 318.982 C 118.799 312.177,99.550 294.966,87.796 278.501 C 83.688 272.746,76.099 259.470,76.620 258.949 C 76.697 258.872,102.758 243.812,134.534 225.483 L 192.308 192.156 192.411 175.565 C 192.467 166.440,192.404 158.974,192.270 158.974 C 192.136 158.974,163.889 175.239,129.499 195.119 C 85.902 220.320,66.882 231.118,66.675 230.783 C 66.512 230.519,66.008 228.145,65.556 225.507 C 62.777 209.311,62.918 189.705,65.923 174.591 C 77.887 114.410,127.359 70.800,189.053 66.050 L 192.505 65.784 192.505 51.433 L 192.505 37.081 190.828 37.144 C 189.906 37.179,188.531 37.267,187.771 37.340 M211.834 65.089 L 211.834 93.097 213.314 93.136 C 214.127 93.158,220.340 93.244,227.120 93.327 L 239.448 93.479 239.448 81.256 C 239.448 70.335,239.515 69.034,240.076 69.034 C 241.205 69.034,254.533 73.661,258.739 75.513 C 286.033 87.532,308.686 108.921,322.067 135.306 C 326.578 144.200,330.276 153.692,329.432 154.214 C 329.169 154.376,302.602 169.760,270.395 188.399 L 211.837 222.288 211.835 286.884 C 211.834 349.531,211.856 351.479,212.566 351.479 C 221.673 351.479,240.092 348.340,252.032 344.752 C 301.837 329.787,341.410 290.681,356.598 241.420 C 357.501 238.491,358.311 235.873,358.398 235.602 C 358.522 235.213,355.505 235.108,344.201 235.108 L 329.846 235.108 329.169 237.179 C 319.920 265.475,296.625 292.725,268.442 308.217 C 260.757 312.441,242.939 319.527,240.002 319.527 C 239.530 319.527,239.448 313.505,239.448 278.791 L 239.448 238.056 297.337 204.740 C 329.177 186.417,356.670 170.578,358.435 169.543 L 361.643 167.662 361.071 164.600 C 351.272 112.114,313.369 66.845,263.116 47.609 C 247.468 41.619,225.670 37.081,212.544 37.081 C 211.867 37.081,211.834 38.381,211.834 65.089 " stroke="none" fill="#9c9c9c" fill-rule="evenodd"></path><path id="path1" d="" stroke="none" fill="#9c9494" fill-rule="evenodd"></path><path id="path2" d="" stroke="none" fill="#9c9ca0" fill-rule="evenodd"></path><path id="path3" d="" stroke="none" fill="#9c9ca0" fill-rule="evenodd"></path><path id="path4" d="" stroke="none" fill="#9c9ca0" fill-rule="evenodd"></path></g></svg>