<svg id="svg" version="1.1" xmlns="http://www.w3.org/2000/svg" xmlns:xlink="http://www.w3.org/1999/xlink" width="400" height="399.6055226824458" viewBox="0, 0, 400,399.6055226824458"><g id="svgg"><path id="path0" d="M186.982 0.410 C 44.016 10.708,-42.472 161.512,21.335 289.242 C 62.325 371.298,154.981 415.197,244.167 394.815 C 347.562 371.186,414.538 271.145,397.040 166.469 C 380.270 66.145,287.921 -6.860,186.982 0.410 M218.935 15.985 C 310.497 25.580,380.810 100.309,384.582 192.036 C 389.437 310.056,285.118 401.703,168.342 382.008 C 77.265 366.647,11.404 284.758,15.417 191.866 C 20.007 85.596,113.360 4.921,218.935 15.985 M185.331 37.507 C 88.583 45.507,19.775 135.169,37.322 230.375 C 46.754 281.545,79.725 324.798,126.824 347.786 L 134.320 351.444 134.423 335.585 C 134.492 324.921,134.392 319.682,134.118 319.591 C 125.858 316.838,104.046 298.847,93.856 286.384 C 86.954 277.942,75.633 259.935,76.612 258.956 C 76.685 258.883,102.747 243.826,134.527 225.495 L 192.308 192.166 192.411 175.570 C 192.467 166.443,192.403 158.974,192.269 158.974 C 192.134 158.974,163.886 175.237,129.495 195.114 C 87.124 219.604,66.874 231.104,66.679 230.789 C 66.521 230.533,66.103 228.693,65.751 226.700 C 62.765 209.815,62.830 190.137,65.923 174.591 C 76.449 121.688,116.654 80.555,169.231 68.898 C 175.593 67.487,187.510 65.880,191.617 65.878 L 192.505 65.878 192.505 51.479 L 192.505 37.081 190.828 37.136 C 189.906 37.166,187.433 37.333,185.331 37.507 M211.834 65.042 L 211.834 93.097 213.314 93.153 C 214.127 93.184,220.340 93.258,227.120 93.318 L 239.448 93.427 239.448 81.230 C 239.448 70.333,239.515 69.034,240.076 69.034 C 241.452 69.034,254.949 73.831,259.961 76.101 C 286.884 88.298,308.844 109.231,322.067 135.306 C 326.409 143.867,330.273 153.696,329.486 154.178 C 329.252 154.321,302.685 169.702,270.448 188.357 L 211.834 222.277 211.834 286.920 L 211.834 351.563 215.483 351.303 C 282.193 346.558,337.447 303.533,356.598 241.420 C 357.501 238.491,358.311 235.873,358.398 235.602 C 358.522 235.213,355.509 235.108,344.222 235.108 L 329.889 235.108 328.787 238.166 C 316.930 271.068,291.239 298.582,259.123 312.775 C 254.048 315.018,243.534 318.765,240.730 319.331 L 239.448 319.589 239.449 278.828 L 239.450 238.067 297.338 204.745 C 329.177 186.418,356.670 170.577,358.435 169.543 L 361.643 167.662 361.075 164.600 C 348.110 94.703,288.283 42.303,215.680 37.254 L 211.834 36.987 211.834 65.042 " stroke="none" fill="#e4ece4" fill-rule="evenodd"></path><path id="path1" d="" stroke="none" fill="#e8ece4" fill-rule="evenodd"></path><path id="path2" d="" stroke="none" fill="#e8ece4" fill-rule="evenodd"></path><path id="path3" d="" stroke="none" fill="#e8ece4" fill-rule="evenodd"></path><path id="path4" d="" stroke="none" fill="#e8ece4" fill-rule="evenodd"></path></g></svg>